<svg xmlns="http://www.w3.org/2000/svg" xmlns:xlink="http://www.w3.org/1999/xlink" width="1028" zoomAndPan="magnify" viewBox="0 0 770.88 770.999999" height="1028" preserveAspectRatio="xMidYMid meet" version="1.0"><defs><clipPath id="1160520853"><path d="M 373 93.5625 L 397 93.5625 L 397 188 L 373 188 Z M 373 93.5625 " clip-rule="nonzero"/></clipPath><clipPath id="45cd58dfa4"><path d="M 373 640 L 397 640 L 397 736.214844 L 373 736.214844 Z M 373 640 " clip-rule="nonzero"/></clipPath></defs><g clip-path="url(#1160520853)"><path fill="#00c2cb" d="M 384.859375 187.695312 C 391.832031 187.695312 396.480469 183.046875 396.480469 176.074219 L 396.480469 105.183594 C 396.480469 98.210938 391.832031 93.5625 384.859375 93.5625 C 377.886719 93.5625 373.238281 98.210938 373.238281 105.183594 L 373.238281 177.238281 C 373.238281 183.046875 377.886719 187.695312 384.859375 187.695312 Z M 384.859375 187.695312 " fill-opacity="1" fill-rule="nonzero"/></g><g clip-path="url(#45cd58dfa4)"><path fill="#00c2cb" d="M 384.859375 640.921875 C 377.886719 640.921875 373.238281 645.570312 373.238281 652.542969 L 373.238281 724.59375 C 373.238281 731.566406 377.886719 736.214844 384.859375 736.214844 C 391.832031 736.214844 396.480469 731.566406 396.480469 724.59375 L 396.480469 652.542969 C 396.480469 645.570312 391.832031 640.921875 384.859375 640.921875 Z M 384.859375 640.921875 " fill-opacity="1" fill-rule="nonzero"/></g><path fill="#00c2cb" d="M 610.332031 255.097656 L 675.417969 203.964844 C 680.070312 200.480469 681.230469 192.34375 677.742188 187.695312 C 674.257812 183.046875 666.121094 181.886719 661.472656 185.371094 L 596.386719 236.503906 C 591.738281 239.992188 590.574219 248.125 594.0625 252.773438 C 597.550781 258.585938 604.523438 258.585938 610.332031 255.097656 Z M 610.332031 255.097656 " fill-opacity="1" fill-rule="nonzero"/><path fill="#00c2cb" d="M 159.382812 573.519531 L 94.296875 623.488281 C 89.648438 626.976562 88.488281 635.109375 91.972656 639.757812 C 95.460938 644.40625 103.597656 645.570312 108.246094 642.082031 L 173.332031 590.949219 C 177.980469 587.464844 179.140625 579.328125 175.65625 574.679688 C 172.167969 570.03125 165.195312 570.03125 159.382812 573.519531 Z M 159.382812 573.519531 " fill-opacity="1" fill-rule="nonzero"/><path fill="#00c2cb" d="M 610.332031 573.519531 C 605.683594 570.03125 597.550781 570.03125 594.0625 575.84375 C 590.574219 580.492188 590.574219 588.625 596.386719 592.113281 L 661.472656 643.246094 C 666.121094 646.730469 674.257812 646.730469 677.742188 640.921875 C 681.230469 636.273438 681.230469 628.136719 675.417969 624.652344 Z M 610.332031 573.519531 " fill-opacity="1" fill-rule="nonzero"/><path fill="#00c2cb" d="M 159.382812 255.097656 C 164.03125 258.585938 172.167969 258.585938 175.65625 252.773438 C 179.140625 248.125 179.140625 239.992188 173.332031 236.503906 L 108.246094 185.371094 C 103.597656 181.886719 95.460938 181.886719 91.972656 187.695312 C 88.488281 193.507812 88.488281 200.480469 94.296875 203.964844 Z M 159.382812 255.097656 " fill-opacity="1" fill-rule="nonzero"/><path fill="#00c2cb" d="M 499.921875 205.128906 C 505.730469 208.613281 512.707031 206.289062 516.191406 200.480469 L 552.222656 134.238281 C 555.707031 128.425781 553.382812 121.453125 547.574219 117.96875 C 541.761719 114.480469 534.789062 116.804688 531.300781 122.617188 L 495.273438 188.859375 C 491.785156 194.667969 494.109375 201.640625 499.921875 205.128906 Z M 499.921875 205.128906 " fill-opacity="1" fill-rule="nonzero"/><path fill="#00c2cb" d="M 269.796875 623.488281 C 263.984375 620.003906 257.011719 622.328125 253.527344 628.136719 L 217.496094 694.378906 C 214.007812 700.1875 216.332031 707.160156 222.144531 710.648438 C 227.957031 714.132812 234.929688 711.808594 238.417969 706 L 274.445312 639.757812 C 277.933594 633.949219 275.609375 626.976562 269.796875 623.488281 Z M 269.796875 623.488281 " fill-opacity="1" fill-rule="nonzero"/><path fill="#00c2cb" d="M 757.9375 523.546875 L 673.09375 495.65625 C 667.285156 493.332031 660.308594 496.816406 657.984375 502.628906 C 655.660156 508.4375 659.148438 515.410156 664.960938 517.734375 L 749.804688 545.628906 C 755.613281 547.953125 762.585938 544.464844 764.914062 538.65625 C 767.238281 532.84375 763.75 525.871094 757.9375 523.546875 Z M 757.9375 523.546875 " fill-opacity="1" fill-rule="nonzero"/><path fill="#00c2cb" d="M 11.777344 305.070312 L 96.621094 332.960938 C 102.433594 335.285156 109.40625 331.796875 111.730469 325.988281 C 114.054688 320.175781 110.570312 313.203125 104.757812 310.878906 L 19.914062 282.988281 C 14.101562 280.664062 7.128906 284.152344 4.804688 289.960938 C 2.480469 295.773438 5.96875 302.746094 11.777344 305.070312 Z M 11.777344 305.070312 " fill-opacity="1" fill-rule="nonzero"/><path fill="#00c2cb" d="M 660.308594 328.3125 C 662.636719 334.121094 668.445312 337.609375 675.417969 336.445312 L 761.425781 309.71875 C 767.238281 307.394531 770.722656 301.582031 769.5625 294.609375 C 767.238281 288.800781 761.425781 285.3125 754.453125 286.476562 L 668.445312 313.203125 C 661.472656 315.527344 657.984375 322.5 660.308594 328.3125 Z M 660.308594 328.3125 " fill-opacity="1" fill-rule="nonzero"/><path fill="#00c2cb" d="M 109.40625 500.304688 C 107.082031 494.492188 101.273438 491.007812 94.296875 492.167969 L 9.453125 518.898438 C 3.644531 521.222656 0.15625 527.03125 1.320312 534.003906 C 3.644531 539.816406 9.453125 543.304688 16.429688 542.140625 L 102.433594 515.410156 C 108.246094 513.085938 111.730469 506.113281 109.40625 500.304688 Z M 109.40625 500.304688 " fill-opacity="1" fill-rule="nonzero"/><path fill="#00c2cb" d="M 510.382812 629.300781 C 506.894531 623.488281 499.921875 621.164062 494.109375 624.652344 C 488.296875 628.136719 485.972656 635.109375 489.460938 640.921875 L 524.328125 707.160156 C 527.816406 712.972656 534.789062 715.296875 540.597656 711.808594 C 546.410156 708.324219 548.734375 701.351562 545.25 695.539062 Z M 510.382812 629.300781 " fill-opacity="1" fill-rule="nonzero"/><path fill="#00c2cb" d="M 259.335938 199.316406 C 262.824219 205.128906 269.796875 207.453125 275.609375 203.964844 C 281.417969 200.480469 283.742188 193.507812 280.257812 187.695312 L 245.390625 121.453125 C 241.902344 115.644531 234.929688 113.320312 229.117188 116.804688 C 223.308594 120.292969 220.984375 127.265625 224.46875 133.074219 Z M 259.335938 199.316406 " fill-opacity="1" fill-rule="nonzero"/><path fill="#00c2cb" d="M 384.859375 258.585938 C 218.65625 258.585938 86.164062 400.363281 80.351562 406.171875 C 75.703125 410.820312 75.703125 417.792969 80.351562 422.441406 C 86.164062 428.253906 218.65625 570.03125 384.859375 570.03125 C 551.058594 570.03125 683.554688 428.253906 689.367188 422.441406 C 694.015625 417.792969 694.015625 410.820312 689.367188 406.171875 C 683.554688 400.363281 551.058594 258.585938 384.859375 258.585938 Z M 384.859375 546.789062 C 311.636719 546.789062 252.363281 487.519531 252.363281 414.308594 C 252.363281 341.09375 311.636719 281.828125 384.859375 281.828125 C 458.082031 281.828125 517.355469 341.09375 517.355469 414.308594 C 517.355469 487.519531 458.082031 546.789062 384.859375 546.789062 Z M 276.769531 302.746094 C 247.714844 330.636719 229.117188 370.148438 229.117188 414.308594 C 229.117188 458.46875 247.714844 497.980469 276.769531 525.871094 C 191.925781 494.492188 126.839844 435.226562 105.921875 414.308594 C 126.839844 393.390625 191.925781 334.121094 276.769531 302.746094 Z M 492.949219 525.871094 C 522.003906 497.980469 540.597656 458.46875 540.597656 414.308594 C 540.597656 370.148438 522.003906 330.636719 492.949219 302.746094 C 577.792969 334.121094 642.875 393.390625 663.796875 414.308594 C 642.875 435.226562 577.792969 494.492188 492.949219 525.871094 Z M 492.949219 525.871094 " fill-opacity="1" fill-rule="nonzero"/><path fill="#00c2cb" d="M 384.859375 325.988281 C 336.042969 325.988281 296.527344 365.5 296.527344 414.308594 C 296.527344 463.117188 336.042969 502.628906 384.859375 502.628906 C 433.671875 502.628906 473.1875 463.117188 473.1875 414.308594 C 473.1875 365.5 433.671875 325.988281 384.859375 325.988281 Z M 384.859375 479.386719 C 348.828125 479.386719 319.773438 450.332031 319.773438 414.308594 C 319.773438 378.28125 348.828125 349.230469 384.859375 349.230469 C 420.886719 349.230469 449.945312 378.28125 449.945312 414.308594 C 449.945312 450.332031 420.886719 479.386719 384.859375 479.386719 Z M 384.859375 479.386719 " fill-opacity="1" fill-rule="nonzero"/></svg>