<svg xmlns="http://www.w3.org/2000/svg" xmlns:xlink="http://www.w3.org/1999/xlink" width="1028" zoomAndPan="magnify" viewBox="0 0 770.88 770.999999" height="1028" preserveAspectRatio="xMidYMid meet" version="1.0"><defs><clipPath id="436b16ebb4"><path d="M 69 193 L 708 193 L 708 770.9375 L 69 770.9375 Z M 69 193 " clip-rule="nonzero"/></clipPath></defs><g clip-path="url(#436b16ebb4)"><path fill="#94d8db" d="M 706.492188 641.988281 C 705.667969 639.78125 703.953125 638.03125 701.863281 636.941406 C 668.636719 619.601562 631.847656 593.890625 629.914062 583.148438 C 629.753906 582.25 612.148438 491.132812 594.9375 463.175781 L 523.761719 349.257812 C 512.300781 330.925781 488.074219 325.332031 469.75 336.789062 C 469.714844 336.808594 469.679688 336.828125 469.648438 336.847656 C 464.523438 340.070312 463.121094 346.9375 466.332031 352.074219 L 478.65625 371.800781 C 481.367188 376.136719 480.386719 382.007812 476.136719 384.851562 C 471.730469 387.792969 465.804688 386.492188 463.023438 382.035156 L 438.441406 342.683594 C 426.140625 323 400.429688 315.839844 380.246094 327.296875 C 379.597656 327.671875 378.957031 328.050781 378.320312 328.449219 C 378.25 328.496094 378.171875 328.542969 378.097656 328.589844 C 366.613281 335.847656 363.402344 351.195312 370.597656 362.71875 L 382.695312 382.078125 C 385.402344 386.417969 384.425781 392.289062 380.175781 395.128906 C 375.769531 398.066406 369.84375 396.769531 367.0625 392.3125 L 336.882812 344.011719 C 324.671875 324.472656 299.144531 317.371094 279.117188 328.757812 C 278.476562 329.121094 277.84375 329.5 277.214844 329.894531 C 277.140625 329.941406 277.0625 329.988281 276.988281 330.035156 C 265.605469 337.230469 262.410156 352.449219 269.546875 363.871094 L 301.011719 414.230469 C 303.722656 418.566406 302.746094 424.445312 298.496094 427.285156 C 294.089844 430.222656 288.164062 428.925781 285.375 424.46875 L 153.929688 214.074219 C 141.53125 194.226562 115.519531 187.179688 95.320312 199 C 94.679688 199.371094 94.050781 199.761719 93.425781 200.164062 C 69.054688 215.816406 62.449219 248.605469 77.792969 273.167969 L 264.875 572.617188 C 241.777344 560.53125 209.648438 545.148438 180.675781 536.351562 C 154.3125 528.339844 130.167969 536.757812 112.679688 560.050781 C 105.828125 569.175781 104.28125 581.324219 108.921875 592.195312 C 112 599.398438 117.734375 605.121094 124.703125 608.691406 C 141.90625 617.507812 165.914062 633.457031 193.660156 651.890625 C 257.976562 694.613281 330.875 743.039062 377 743.1875 C 413.453125 743.304688 508.765625 770.019531 509.726562 770.292969 C 512.261719 771.007812 514.972656 770.617188 517.207031 769.222656 L 702.710938 653.257812 C 706.390625 650.960938 708.109375 646.335938 706.492188 641.988281 " fill-opacity="1" fill-rule="nonzero"/></g><path fill="#94d8db" d="M 136.273438 116.128906 C 135.546875 124.402344 142.875 131.984375 151.160156 131.617188 L 222.066406 129.859375 C 230.113281 129.65625 236.464844 122.976562 236.265625 114.933594 C 236.074219 107.007812 229.589844 100.726562 221.710938 100.726562 C 221.589844 100.726562 221.46875 100.726562 221.347656 100.730469 L 191.398438 101.46875 C 287.390625 32.015625 422.640625 40.3125 509.253906 126.578125 C 514.953125 132.257812 524.179688 132.238281 529.851562 126.539062 C 535.53125 120.828125 535.507812 111.605469 529.8125 105.933594 C 432.667969 9.183594 280.839844 0.121094 173.433594 78.496094 L 179.390625 48.972656 C 180.984375 41.082031 175.882812 33.402344 168 31.804688 C 160.121094 30.21875 152.429688 35.316406 150.839844 43.207031 L 136.519531 114.171875 C 136.402344 114.816406 136.292969 115.46875 136.273438 116.128906 " fill-opacity="1" fill-rule="nonzero"/></svg>