<svg xmlns="http://www.w3.org/2000/svg" xmlns:xlink="http://www.w3.org/1999/xlink" width="1028" zoomAndPan="magnify" viewBox="0 0 770.88 770.999999" height="1028" preserveAspectRatio="xMidYMid meet" version="1.0"><defs><clipPath id="a5caf13b79"><path d="M 235.601562 469 L 535.554688 469 L 535.554688 770 L 235.601562 770 Z M 235.601562 469 " clip-rule="nonzero"/></clipPath></defs><g clip-path="url(#a5caf13b79)"><path fill="#40bfbc" d="M 535.601562 619.707031 C 535.601562 536.910156 468.417969 469.804688 385.566406 469.804688 C 302.695312 469.804688 235.542969 536.910156 235.542969 619.707031 C 235.542969 702.476562 302.695312 769.632812 385.566406 769.632812 C 468.417969 769.632812 535.601562 702.476562 535.601562 619.707031 " fill-opacity="1" fill-rule="nonzero"/></g><path fill="#40bfbc" d="M 454.945312 68.824219 C 454.945312 31.589844 424.742188 1.375 387.433594 1.375 L 383.695312 1.375 C 346.386719 1.375 316.183594 31.589844 316.183594 68.824219 L 316.183594 552.257812 C 316.183594 589.507812 346.386719 619.707031 383.695312 619.707031 L 387.433594 619.707031 C 424.742188 619.707031 454.945312 589.507812 454.945312 552.257812 L 454.945312 68.824219 " fill-opacity="1" fill-rule="nonzero"/><path fill="#e5f7fd" d="M 383.695312 587.847656 C 364.058594 587.847656 348.054688 571.867188 348.054688 552.257812 L 348.054688 68.824219 C 348.054688 49.195312 364.058594 33.25 383.695312 33.25 L 387.433594 33.25 C 407.097656 33.25 423.066406 49.195312 423.066406 68.824219 L 423.066406 552.257812 C 423.066406 571.867188 407.097656 587.847656 387.433594 587.847656 L 383.695312 587.847656 " fill-opacity="1" fill-rule="nonzero"/><path fill="#e5f7fd" d="M 488.691406 619.707031 C 488.691406 562.777344 442.527344 516.640625 385.566406 516.640625 C 328.609375 516.640625 282.421875 562.777344 282.421875 619.707031 C 282.421875 676.613281 328.609375 722.765625 385.566406 722.765625 C 442.527344 722.765625 488.691406 676.613281 488.691406 619.707031 " fill-opacity="1" fill-rule="nonzero"/><path fill="#ef2a44" d="M 364.03125 389 L 364.03125 552.257812 C 364.03125 563.082031 372.859375 571.925781 383.695312 571.925781 L 387.433594 571.925781 C 398.308594 571.925781 407.113281 563.082031 407.113281 552.257812 L 407.113281 389 L 364.03125 389 " fill-opacity="1" fill-rule="nonzero"/><path fill="#ef2a44" d="M 385.566406 706.820312 C 337.496094 706.820312 298.363281 667.742188 298.363281 619.707031 C 298.363281 571.664062 337.496094 532.601562 385.566406 532.601562 C 433.65625 532.601562 472.753906 571.664062 472.753906 619.707031 C 472.753906 667.742188 433.65625 706.820312 385.566406 706.820312 " fill-opacity="1" fill-rule="nonzero"/><path fill="#ffde59" d="M 386.78125 487.648438 L 423.066406 487.648438 L 423.066406 509.488281 L 386.78125 509.488281 L 386.78125 487.648438 " fill-opacity="1" fill-rule="nonzero"/><path fill="#ffde59" d="M 386.78125 418.648438 L 423.066406 418.648438 L 423.066406 440.539062 L 386.78125 440.539062 L 386.78125 418.648438 " fill-opacity="1" fill-rule="nonzero"/><path fill="#ffde59" d="M 386.78125 349.675781 L 423.066406 349.675781 L 423.066406 371.554688 L 386.78125 371.554688 L 386.78125 349.675781 " fill-opacity="1" fill-rule="nonzero"/><path fill="#ffde59" d="M 386.78125 280.667969 L 423.066406 280.667969 L 423.066406 302.5625 L 386.78125 302.5625 L 386.78125 280.667969 " fill-opacity="1" fill-rule="nonzero"/><path fill="#ffde59" d="M 386.78125 211.699219 L 423.066406 211.699219 L 423.066406 233.582031 L 386.78125 233.582031 L 386.78125 211.699219 " fill-opacity="1" fill-rule="nonzero"/><path fill="#ffde59" d="M 386.78125 142.726562 L 423.066406 142.726562 L 423.066406 164.605469 L 386.78125 164.605469 L 386.78125 142.726562 " fill-opacity="1" fill-rule="nonzero"/></svg>